<?xml version="1.0" encoding="UTF-8" standalone="no"?>
<svg
   width="172"
   height="72"
   viewBox="0 0 172 71.999998"
   version="1.1"
   id="svg35"
   sodipodi:docname="Group 45777.svg"
   inkscape:version="1.2.2 (b0a8486541, 2022-12-01)"
   xmlns:inkscape="http://www.inkscape.org/namespaces/inkscape"
   xmlns:sodipodi="http://sodipodi.sourceforge.net/DTD/sodipodi-0.dtd"
   xmlns="http://www.w3.org/2000/svg"
   xmlns:svg="http://www.w3.org/2000/svg">
  <defs
     id="defs39" />
  <sodipodi:namedview
     id="namedview37"
     pagecolor="#ffffff"
     bordercolor="#666666"
     borderopacity="1.0"
     inkscape:showpageshadow="2"
     inkscape:pageopacity="0.0"
     inkscape:pagecheckerboard="0"
     inkscape:deskcolor="#d1d1d1"
     showgrid="false"
     inkscape:zoom="4.3038724"
     inkscape:cx="123.14492"
     inkscape:cy="58.551922"
     inkscape:window-width="1920"
     inkscape:window-height="986"
     inkscape:window-x="-11"
     inkscape:window-y="-11"
     inkscape:window-maximized="1"
     inkscape:current-layer="svg35" />
  <g
     id="Group_45777"
     data-name="Group 45777"
     transform="matrix(0.26015324,0,0,0.26015324,-426.69714,-1893.3212)">
    <g
       id="Group_41861"
       data-name="Group 41861"
       transform="translate(-2468,4294)">
      <g
         id="Group_41844"
         data-name="Group 41844">
        <path
           id="Path_44698"
           data-name="Path 44698"
           d="m 4508.441,2998.209 -8.882,15.639 a 1.433,1.433 0 0 0 0.374,1.832 c 11.49,8.982 17.437,17.106 12.361,24.112 -10.976,15.17 -27.691,-6.082 -17.382,-26.309 l 0.146,-0.244 c 0.1,-0.211 0.211,-0.423 0.325,-0.634 0.017,-0.049 0.033,-0.065 0.049,-0.114 0.016,0 0.016,0.016 0.033,0.016 l 10.276,-18.308 c -0.016,0 -0.016,-0.017 -0.033,-0.017 0.13,-0.211 0.261,-0.422 0.407,-0.65 l 0.016,-0.032 c 1.174,-1.845 2.912,-4.35 4.647,-6.844 a 0.777,0.777 0 0 0 -0.638,-1.221 h -6.89 a 0.76,0.76 0 0 0 -0.658,0.363 c -5.868,9.6 -15.147,24.782 -15.388,25.263 a 71.244,71.244 0 0 0 -6.617,16.943 c -9.773,40.276 33.544,44.179 44.731,8.6 5.528,-17.617 -3.4,-29.468 -14.73,-38.8 a 1.431,1.431 0 0 0 -2.147,0.405 z"
           fill="#231f20" />
      </g>
      <g
         id="Group_41846"
         data-name="Group 41846">
        <g
           id="Group_41845"
           data-name="Group 41845">
          <path
             id="Path_44699"
             data-name="Path 44699"
             d="M 4646.335,3110.83"
             fill="#231f20" />
        </g>
      </g>
      <g
         id="Group_41850"
         data-name="Group 41850">
        <g
           id="Group_41847"
           data-name="Group 41847">
          <path
             id="Path_44700"
             data-name="Path 44700"
             d="m 4293.881,3124.844 c 0,0.024 0,0.024 -0.022,0.046 0.022,0 0.045,-0.022 0.068,-0.046 z m 0,0 c 0,0.024 0,0.024 -0.022,0.046 0.022,0 0.045,-0.022 0.068,-0.046 z m 0,0 c 0,0.024 0,0.024 -0.022,0.046 0.022,0 0.045,-0.022 0.068,-0.046 z m 0,0 c 0,0.024 0,0.024 -0.022,0.046 0.022,0 0.045,-0.022 0.068,-0.046 z"
             fill="#231f20" />
        </g>
        <g
           id="Group_41848"
           data-name="Group 41848">
          <path
             id="Path_44701"
             data-name="Path 44701"
             d="m 4319.8,3196.728 c -0.609,-0.586 -1.218,-1.2 -1.849,-1.827 -14.661,-14.887 -33.382,-46.125 -19.578,-63.4 17.367,-21.789 57.064,20.841 25.848,60.244 a 30.67,30.67 0 0 1 -4.421,4.983 z m 179.281,-36.2 c -12.88,21.652 -27.044,45.472 -32.57,54.628 h -98.09 c -10.15,0 3.459,0.79 -6.962,0 a 71.619,71.619 0 0 1 -14.593,-2.5 62.436,62.436 0 0 1 -12.382,-5.12 c 15.134,-20.842 25.645,-46.847 22.036,-71.838 -6.812,-47.614 -52.869,-64.35 -76.8,-12.247 -17.864,38.953 -2.12,77.634 11.119,91.708 h -150.6 l -25.736,42.517 c 59.794,0.023 97.89,0 171.329,0 l 21.834,-28.691 c 3.022,2.617 10.943,28.691 64.376,28.691 h 85.312 c 7.014,-11.594 15.811,-26.141 25.013,-41.389 8.436,-13.984 17.21,-28.532 25.307,-41.952 2.865,-4.782 5.661,-9.406 8.323,-13.8 z"
             fill="#231f20" />
        </g>
        <g
           id="Group_41849"
           data-name="Group 41849">
          <path
             id="Path_44702"
             data-name="Path 44702"
             d="m 4293.972,3124.819 -0.146,0.1 c 0.016,-0.016 0.032,-0.048 0.049,-0.065 a 0.226,0.226 0 0 1 0.097,-0.035 z"
             fill="#231f20" />
        </g>
      </g>
      <g
         id="Group_41851"
         data-name="Group 41851">
        <path
           id="Path_44703"
           data-name="Path 44703"
           d="m 4718.951,3074.021 c -30.66,-40.484 -71.813,-29.053 -94.675,-18.193 v 58.972 l 31.5,-55.712 31.013,46.379 z"
           fill="#231f20" />
      </g>
      <g
         id="Group_41854"
         data-name="Group 41854">
        <g
           id="Group_41852"
           data-name="Group 41852">
          <path
             id="Path_44704"
             data-name="Path 44704"
             d="m 4293.881,3124.844 c 0,0.024 0,0.024 -0.022,0.046 0.022,0 0.045,-0.022 0.068,-0.046 z m 0,0 c 0,0.024 0,0.024 -0.022,0.046 0.022,0 0.045,-0.022 0.068,-0.046 z m 0,0 c 0,0.024 0,0.024 -0.022,0.046 0.022,0 0.045,-0.022 0.068,-0.046 z m 0,0 c 0,0.024 0,0.024 -0.022,0.046 0.022,0 0.045,-0.022 0.068,-0.046 z"
             fill="#231f20" />
        </g>
        <g
           id="Group_41853"
           data-name="Group 41853">
          <path
             id="Path_44705"
             data-name="Path 44705"
             d="m 4293.985,3124.819 -0.146,0.1 c 0.016,-0.016 0.033,-0.048 0.049,-0.065 a 0.229,0.229 0 0 1 0.097,-0.035 z"
             fill="#231f20" />
        </g>
      </g>
      <g
         id="Group_41855"
         data-name="Group 41855">
        <path
           id="Path_44706"
           data-name="Path 44706"
           d="m 4642.345,3196.728 c -0.631,-0.586 -1.24,-1.2 -1.849,-1.827 -14.683,-14.887 -33.382,-46.125 -19.578,-63.4 17.345,-21.789 57.064,20.841 25.848,60.244 a 30.693,30.693 0 0 1 -4.421,4.983 z m 116.069,-63.086 c -5.188,-9.067 -39.471,-59.614 -39.471,-59.614 l -32.164,31.442 c 13.082,18.337 30.72,44.615 44.862,66.808 9.7,15.2 2.368,42.877 -24.5,42.877 -11.435,0 -18.382,-0.112 -22.059,-0.112 -12,0 -15,-0.925 -28.081,-7.511 15.157,-20.842 25.645,-46.847 22.059,-71.838 -4.1,-28.69 -22.465,-46.17 -41.637,-44.14 a 31.929,31.929 0 0 0 -13.149,4.578 c -8.12,4.917 -15.812,13.782 -22.014,27.315 -18.247,39.741 0.045,77.431 8.774,91.731 0,0 -53.408,-0.135 -63.175,-0.135 -28.915,0 -51.674,-20.029 -40.193,-40.712 0.676,-1.2 1.2,-2.549 1.985,-3.812 a 92.576,92.576 0 0 0 5.1,-9.992 h -0.113 a 84.543,84.543 0 0 1 -4.916,9.337 q -13.737,22.8 -27.45,45.584 c 0.022,0.271 0.068,0.564 0.09,0.835 a 47.127,47.127 0 0 0 5.3,17.052 c 7.6,14.165 20.5,23.954 36.81,24.337 16.713,0.383 77.655,0.023 77.655,0.023 l 20.367,-28.714 c 2.255,5.843 19.961,28.691 46.193,28.691 13.826,0 28.554,0.023 39.7,0.023 l 45.358,-61.531 c 14.932,-24.202 17.029,-40.78 4.669,-62.522 z"
           fill="#231f20" />
      </g>
      <g
         id="Group_41856"
         data-name="Group 41856">
        <rect
           id="Rectangle_17496"
           data-name="Rectangle 17496"
           width="36.419998"
           height="36.419998"
           rx="3.1819999"
           transform="rotate(45,-1469.0889,7009.5215)"
           fill="#231f20"
           x="0"
           y="0" />
      </g>
      <g
         id="Group_41857"
         data-name="Group 41857">
        <rect
           id="Rectangle_17497"
           data-name="Rectangle 17497"
           width="36.419998"
           height="36.419998"
           rx="3.1819999"
           transform="rotate(45,-1491.5304,6955.3429)"
           fill="#231f20"
           x="0"
           y="0" />
      </g>
      <g
         id="Group_41858"
         data-name="Group 41858">
        <rect
           id="Rectangle_17498"
           data-name="Rectangle 17498"
           width="36.419998"
           height="36.419998"
           rx="3.1819999"
           transform="rotate(45,-1478.6189,6717.549)"
           fill="#231f20"
           x="0"
           y="0" />
      </g>
      <g
         id="Group_41859"
         data-name="Group 41859">
        <path
           id="Path_44707"
           data-name="Path 44707"
           d="M 4515.727,3004.306"
           fill="#231f20" />
      </g>
      <g
         id="Group_41860"
         data-name="Group 41860">
        <path
           id="Path_44708"
           data-name="Path 44708"
           d="M 4514.442,3006.582"
           fill="#231f20" />
      </g>
    </g>
  </g>
</svg>
