<?xml version="1.0" encoding="UTF-8" standalone="no"?>
<svg
   width="482.909"
   height="410.123"
   viewBox="0 0 482.909 410.123"
   version="1.1"
   id="svg8"
   sodipodi:docname="team.svg"
   inkscape:version="1.2.2 (b0a8486541, 2022-12-01)"
   xmlns:inkscape="http://www.inkscape.org/namespaces/inkscape"
   xmlns:sodipodi="http://sodipodi.sourceforge.net/DTD/sodipodi-0.dtd"
   xmlns="http://www.w3.org/2000/svg"
   xmlns:svg="http://www.w3.org/2000/svg">
  <defs
     id="defs12" />
  <sodipodi:namedview
     id="namedview10"
     pagecolor="#ffffff"
     bordercolor="#666666"
     borderopacity="1.0"
     inkscape:showpageshadow="2"
     inkscape:pageopacity="0.0"
     inkscape:pagecheckerboard="0"
     inkscape:deskcolor="#d1d1d1"
     showgrid="false"
     inkscape:zoom="1.3586172"
     inkscape:cx="199.46752"
     inkscape:cy="187.69084"
     inkscape:window-width="1920"
     inkscape:window-height="986"
     inkscape:window-x="-11"
     inkscape:window-y="-11"
     inkscape:window-maximized="1"
     inkscape:current-layer="svg8" />
  <g
     id="Group_46826"
     data-name="Group 46826"
     transform="matrix(0.74693564,0,0,0.74693564,67.133129,69.293734)">
    <path
       id="Subtraction_32"
       data-name="Subtraction 32"
       d="m 227.26417,287.30492 c -13.91183,0 -26.28501,-5.57855 -34.83947,-15.70473 -5.43966,-6.43752 -9.1996,-14.48056 -11.17619,-23.91016 -2.14193,-10.21803 -2.13164,-21.86743 0.0301,-34.62417 h 31.5836 c 1.93104,9.43326 5.98048,17.97303 11.40325,24.04683 5.42277,6.0738 12.00872,9.4318 18.52487,9.4318 7.69328,0 15.03899,-4.53294 21.24432,-13.10944 a 22.835891,22.835891 0 0 0 3.69307,-20.36919 h 32.49548 a 97.883951,97.883951 0 0 1 -3.01633,12.2512 109.23871,109.23871 0 0 1 -12.71191,27.22554 86.108899,86.108899 0 0 1 -17.20444,19.35959 70.263092,70.263092 0 0 1 -19.73065,11.56343 57.323391,57.323391 0 0 1 -20.29572,3.83856 v 0 z"
       fill="#221e1f"
       stroke="#221e1f"
       stroke-miterlimit="10"
       stroke-width="0.734793"
       style="fill:#000000;stroke:#000000" />
    <path
       id="Subtraction_33"
       data-name="Subtraction 33"
       d="m 291.14265,164.42331 h -59.50646 l 20.9607,-36.90056 a 3.673964,3.673964 0 0 1 3.1868,-1.85168 3.5453753,3.5453753 0 0 1 2.27785,0.81856 170.21034,170.21034 0 0 1 18.66374,17.62915 100.89514,100.89514 0 0 1 14.41957,20.30085 z m -71.93254,0 h -22.89835 c 0.71495,-1.39611 1.45269,-2.80103 2.19115,-4.16554 0.60106,-1.21168 23.43695,-38.56854 38.54576,-63.28844 l 0.64736,-1.05957 a 1.9420574,1.9420574 0 0 1 1.67459,-0.92437 h 17.54979 a 1.9486705,1.9486705 0 0 1 1.75469,1.06251 1.9486705,1.9486705 0 0 1 -0.12639,2.04787 c -4.95103,7.11867 -8.96447,12.9228 -11.83531,17.43223 l -0.0412,0.0831 c -0.36739,0.56579 -0.69364,1.10219 -1.0118,1.61655 l -0.0243,0.0389 a 0.05437467,0.05437467 0 0 1 0.0419,0.0206 0.05510946,0.05510946 0 0 0 0.0419,0.0206 l -26.17774,46.63363 a 0.05510946,0.05510946 0 0 1 -0.0426,-0.0213 0.05290509,0.05290509 0 0 0 -0.0404,-0.0206 1.0198924,1.0198924 0 0 1 -0.0625,0.14697 1.000053,1.000053 0 0 0 -0.0625,0.14695 l -0.01,0.0176 -0.11462,0.2131 z"
       fill="#221e1f"
       stroke="rgba(0,0,0,0)"
       stroke-miterlimit="10"
       stroke-width="0.734793"
       opacity="0.47" />
    <g
       id="_6435d37252e00ea92c5ead1a719dc226"
       data-name="6435d37252e00ea92c5ead1a719dc226"
       transform="matrix(0.73479281,0,0,0.73479281,61.694787,33.690439)">
      <path
         id="Path_44383"
         data-name="Path 44383"
         d="M 387.761,146.956 A 16.011,16.011 0 0 1 371.9,131.01 V 107.739 A 75.078,75.078 0 0 0 351.2,54.78 72.348,72.348 0 0 0 299.763,32.322 H 282.832 A 16.015,16.015 0 0 1 266.968,16.161 16.015,16.015 0 0 1 282.832,0 h 16.925 c 57.921,0.708 104.509,48.738 104.5,107.739 V 130.8 a 15.884,15.884 0 0 1 -4.369,11.4 15.314,15.314 0 0 1 -11.074,4.759 h -1.058 z m -370.211,0 A 15.513,15.513 0 0 1 6.343,142.361 16.094,16.094 0 0 1 1.683,131.009 v 0 -23.27 A 107.491,107.491 0 0 1 31.841,31.633 103.562,103.562 0 0 1 106.19,0 h 17.347 A 16.016,16.016 0 0 1 139.4,16.161 16.016,16.016 0 0 1 123.534,32.322 H 106.4 A 72.114,72.114 0 0 0 54.351,54.41 74.86,74.86 0 0 0 33.416,107.739 V 131.01 A 16.013,16.013 0 0 1 17.55,146.957 Z"
         transform="translate(38.722)"
         fill="#221e1f"
         opacity="0.47" />
      <path
         id="Path_44384"
         data-name="Path 44384"
         d="M 442.35,41.053 V 101.6 C 441.673,159.848 395.663,207 338.479,208.047 h -17.135 a 15.775,15.775 0 0 1 -15.255,-7.441 16.413,16.413 0 0 1 0,-17.226 15.766,15.766 0 0 1 15.255,-7.441 h 17.134 c 40.343,-0.118 72.985,-33.464 72.985,-74.556 V 41.053 Z M 178.125,192.1 a 16.229,16.229 0 0 1 -15.866,16.161 H 144.911 C 86.99,207.555 40.4,159.526 40.406,100.526 V 41.053 H 72.138 V 101.6 c 0,41.008 32.513,74.318 72.773,74.554 h 17.347 a 15.513,15.513 0 0 1 11.207,4.595 16.091,16.091 0 0 1 4.66,11.351 z M 481.909,24.892 A 16.016,16.016 0 0 1 466.042,41.053 H 15.866 A 16.016,16.016 0 0 1 0,24.892 16.015,16.015 0 0 1 15.866,8.732 h 449.543 a 15.7,15.7 0 0 1 11.631,4.5 16.317,16.317 0 0 1 4.87,11.662 z"
         transform="translate(0,201.359)"
         fill="#221e1f"
         stroke="#221e1f"
         stroke-width="1"
         style="fill:#000000;stroke:#000000" />
    </g>
  </g>
</svg>
