<svg xmlns="http://www.w3.org/2000/svg" width="18.418" height="13.124" viewBox="0 0 18.418 13.124">
  <g id="b9ead43d6481426bb3442c0ed4992ee5" transform="translate(-2.08 -10.68)">
    <path id="Path_43957" data-name="Path 43957" d="M17.882,23.8H4.7A2.619,2.619,0,0,1,2.08,21.188V13.3A2.619,2.619,0,0,1,4.7,10.68H17.882A2.619,2.619,0,0,1,20.5,13.3v7.892A2.619,2.619,0,0,1,17.882,23.8ZM4.7,11.6A1.693,1.693,0,0,0,3,13.3v7.892A1.693,1.693,0,0,0,4.7,22.881H17.882a1.693,1.693,0,0,0,1.693-1.693V13.3A1.693,1.693,0,0,0,17.882,11.6Z" fill="#9ca3af"/>
    <path id="Path_43958" data-name="Path 43958" d="M11.844,22.784a2.619,2.619,0,0,1-1.579-.526L3.078,16.822a.462.462,0,1,1,.557-.736l7.187,5.442a1.708,1.708,0,0,0,2.044,0l7.187-5.442a.462.462,0,1,1,.557.736l-7.187,5.436a2.619,2.619,0,0,1-1.579.526Z" transform="translate(-0.555 -3.67)" fill="#9ca3af"/>
    <path id="Path_43959" data-name="Path 43959" d="M3.13,35.7a.462.462,0,0,1-.308-.806l5.663-5.051a.462.462,0,1,1,.616.689L3.438,35.586A.449.449,0,0,1,3.13,35.7Zm17.132,0a.449.449,0,0,1-.308-.117l-5.663-5.051a.462.462,0,1,1,.616-.689l5.66,5.051a.462.462,0,0,1-.308.806Z" transform="translate(-0.407 -13.186)" fill="#9ca3af"/>
  </g>
</svg>
