<?xml version="1.0" encoding="UTF-8" standalone="no"?>
<svg
   width="202"
   height="47"
   viewBox="0 0 202 46.999999"
   version="1.1"
   id="svg35"
   sodipodi:docname="logo.svg"
   inkscape:version="1.2.2 (b0a8486541, 2022-12-01)"
   xmlns:inkscape="http://www.inkscape.org/namespaces/inkscape"
   xmlns:sodipodi="http://sodipodi.sourceforge.net/DTD/sodipodi-0.dtd"
   xmlns="http://www.w3.org/2000/svg"
   xmlns:svg="http://www.w3.org/2000/svg">
  <defs
     id="defs39" />
  <sodipodi:namedview
     id="namedview37"
     pagecolor="#ffffff"
     bordercolor="#666666"
     borderopacity="1.0"
     inkscape:showpageshadow="2"
     inkscape:pageopacity="0.0"
     inkscape:pagecheckerboard="0"
     inkscape:deskcolor="#d1d1d1"
     showgrid="false"
     inkscape:zoom="3.0432974"
     inkscape:cx="85.926536"
     inkscape:cy="65.718192"
     inkscape:window-width="1920"
     inkscape:window-height="986"
     inkscape:window-x="-11"
     inkscape:window-y="-11"
     inkscape:window-maximized="1"
     inkscape:current-layer="svg35" />
  <g
     id="Layer_1-2"
     data-name="Layer 1"
     transform="matrix(0.0240464,0,0,0.0240464,0.74342807,0.4443347)"
     style="fill:#231f20;fill-opacity:1">
    <g
       id="g26"
       style="fill:#231f20;fill-opacity:1">
      <g
         id="g18"
         style="fill:#231f20;fill-opacity:1">
        <path
           class="cls-1"
           d="m 7193.43,1197.55 c -136.11,0 -160.51,3.36 -296.51,-1.46 -68.05,-2.35 -137.79,-12.42 -202.93,-31.9 -144.28,-42.98 -248.6,-91.11 -318.56,-238.42 107.12,-147.08 322.82,-228.9 670.82,-146.07 l 29.44,-80.82 c -124.02,-118.99 -216.7,-270.1 -416.73,-240.21 -319.68,47.68 -484.22,371.62 -333,655.26 13.77,25.86 28.54,51.04 45.33,81.15 H 4874.07 l -80.26,283.64 h 55.52 c 531.57,0 1052.06,-0.11 1583.63,0.22 197.67,0.11 493.07,1.23 712.12,0.9 l 110.25,-282.3 h -61.9 z m -2514.25,281.96 c -152.57,151.33 -362.1,197.23 -574.11,260.13 22.95,30.22 33.36,82.27 33.36,82.27 104.43,27.54 322.59,73.99 440.35,96.26 126.71,-160.29 197.9,-394.79 215.02,-439.45 l -114.51,-0.22 c -0.11,0.22 -0.22,0.56 -0.11,1.01 z"
           id="path6"
           style="fill:#231f20;fill-opacity:1;stroke-width:0px" />
        <path
           class="cls-1"
           d="m 3686.35,1197.77 v 0.11 c -0.45,-0.11 -0.9,-0.11 -1.34,-0.11 -110.03,-1.9 -267.52,0.78 -377.55,-1.34 -92.35,-1.79 -146.97,-59.1 -151.11,-152.45 -5.15,-115.4 100.86,-249.57 173.5,-348.41 282.99,203.68 377.43,406.5 356.5,502.2 z M 3542.4,468.52 3318.53,506.69 C 3240.18,610.9 3161.26,715 3088.4,823.01 c -33.8,50.26 -61.34,107.46 -78.8,165.33 -74.88,249.5 81.71,499.34 362.66,490.6 64.47,-2.01 177.64,-0.67 249.83,-0.45 0,0.11 71.97,0.34 114.4,0.67 0,-0.11 0.11,-0.34 0.11,-0.45 3.69,-26.3 86.41,-333.45 90.55,-356.73 45.22,-254.76 -68.17,-515.23 -284.76,-653.47 z"
           id="path8"
           style="fill:#231f20;fill-opacity:1;stroke-width:0px" />
        <path
           class="cls-1"
           d="m 4751.54,1197.77 v 0.11 c -0.45,-0.11 -0.9,-0.11 -1.34,-0.11 -110.03,-1.9 -267.52,0.78 -377.55,-1.34 -92.35,-1.79 -146.97,-59.1 -151.11,-152.45 -5.15,-115.4 100.86,-249.57 173.5,-348.41 282.99,203.68 377.43,406.5 356.5,502.2 z M 4607.59,468.52 4383.72,506.69 C 4305.37,610.9 4226.45,715 4153.59,823.01 c -33.8,50.26 -61.34,107.46 -78.8,165.33 -74.88,249.5 81.71,499.34 362.66,490.6 64.47,-2.01 177.64,-0.67 249.83,-0.45 0,0.11 71.97,0.34 114.4,0.67 0,-0.11 0.11,-0.34 0.11,-0.45 3.69,-26.3 86.41,-333.45 90.55,-356.73 45.22,-254.76 -68.17,-515.23 -284.76,-653.47 z"
           id="path10"
           style="fill:#231f20;fill-opacity:1;stroke-width:0px" />
        <path
           class="cls-1"
           d="m 8247.82,1097.82 c -84.17,118.43 -171.59,234.39 -259.24,350.35 -10.63,13.99 -31.12,29.1 -47.24,29.21 -168.68,1.46 -364.23,1.12 -549.26,0.78 l 109.47,-280.5 c 148.31,-1.01 285.43,-1.01 433.74,0.22 75.78,0.56 141.37,-18.47 180.33,-88.32 40.3,-72.53 28.88,-142.27 -16.9,-210.21 -94.47,-140.14 -162.86,-244.33 -263.16,-395.78 l -66.71,230.81 -141.15,71.86 c 0,-117.31 -0.67,-210.55 0.78,-326.62 257.56,-139.92 499.11,-63.91 636.68,143.61 14.44,21.72 3.13,6.92 17.57,28.64 104.66,157.83 65.15,305.24 -34.92,445.94 z"
           id="path12"
           style="fill:#231f20;fill-opacity:1;stroke-width:0px" />
        <path
           class="cls-1"
           d="m 3291.72,350.88 c -70.21,-70.75 -123.86,-124.8 -175.49,-176.82 53.58,-52.59 108.95,-106.94 170.8,-167.65 36.94,43.53 79.78,94 129.56,152.66 57.23,-63.58 101.52,-112.79 143.19,-159.08 63.97,63.11 119.2,117.59 171.48,169.17 -52.44,53.32 -106.71,108.52 -166.32,169.14 -40.26,-47.51 -82.12,-96.9 -133.54,-157.57 -53.43,65.09 -95.43,116.26 -139.67,170.15 z"
           id="path14"
           style="fill:#231f20;fill-opacity:1;stroke-width:0px" />
        <line
           class="cls-1"
           x1="4599.6001"
           y1="468.53"
           x2="4375.73"
           y2="506.70001"
           id="line16"
           style="fill:#231f20;fill-opacity:1;stroke-width:0px" />
      </g>
      <g
         id="g24"
         style="fill:#231f20;fill-opacity:1">
        <path
           class="cls-1"
           d="M 563.93,1561.77 C 259.45,1548.91 0,1360.22 0,946.39 0,532.56 278.75,333.14 593.95,333.14 c 315.2,0 593.94,195.12 593.94,613.24 0,394.53 -240.15,589.66 -533.91,613.24 64.33,109.35 231.57,100.78 461.01,2.14 v 270.17 c -231.57,45.03 -461.01,36.45 -551.06,-270.17 z M 593.95,418.91 c -141.52,0 -272.31,203.7 -272.31,527.48 0,323.78 126.51,529.62 272.31,529.62 130.8,0 272.31,-190.84 272.31,-529.62 0,-310.91 -128.65,-527.48 -272.31,-527.48 z"
           id="path20"
           style="fill:#231f20;fill-opacity:1;stroke-width:0px" />
        <path
           class="cls-1"
           d="m 2002.68,974.26 248.73,388.1 152.24,184.4 H 1979.1 l -15.01,-165.1 -233.72,-362.37 h -68.61 v 370.95 l 27.88,156.53 h -377.38 l 27.87,-156.53 V 489.67 l -27.87,-143.66 h 428.84 c 334.5,0 555.35,128.65 555.35,323.77 v 8.58 c 0,130.8 -124.36,240.15 -293.76,295.9 z m -27.87,-295.9 v -8.58 c 0,-197.27 -62.18,-238.01 -233.72,-238.01 h -79.34 v 501.74 h 68.61 c 132.94,0 244.44,-60.04 244.44,-255.16 z"
           id="path22"
           style="fill:#231f20;fill-opacity:1;stroke-width:0px" />
      </g>
    </g>
  </g>
</svg>
