<svg xmlns="http://www.w3.org/2000/svg" width="15.743" height="15.004" viewBox="0 0 15.743 15.004">
  <path id="_65eec07ddb02b42afb493877723c01b7" data-name="65eec07ddb02b42afb493877723c01b7" d="M24.248,26.425a4.213,4.213,0,1,0-4.2-4.224A4.2,4.2,0,0,0,24.248,26.425Zm0-7.317a3.093,3.093,0,1,1-3.093,3.116A3.093,3.093,0,0,1,24.248,19.108ZM16.954,33H31.589a.562.562,0,0,0,.554-.554,5.3,5.3,0,0,0-5.286-5.286H21.686A5.3,5.3,0,0,0,16.4,32.45.562.562,0,0,0,16.954,33Zm4.732-4.732h5.171A4.163,4.163,0,0,1,30.989,31.9H17.554A4.163,4.163,0,0,1,21.686,28.272Z" transform="translate(-16.4 -18)" fill="#9ca3af"/>
</svg>
