<svg xmlns="http://www.w3.org/2000/svg" width="16" height="16" viewBox="0 0 16 16">
  <path id="_27af93adf277b1da883dd474e423e424" data-name="27af93adf277b1da883dd474e423e424" d="M19.03,14.7,17.6,13.269a2.287,2.287,0,0,0-3.207-.014,1.4,1.4,0,0,1-1.772.173,9.758,9.758,0,0,1-2.689-2.684,1.416,1.416,0,0,1,.184-1.779,2.287,2.287,0,0,0-.02-3.2L8.669,4.341a2.282,2.282,0,0,0-3.222,0l-.411.412C2.893,6.9,3.054,11.4,7.513,15.857c2.688,2.689,5.395,3.815,7.589,3.815a4.87,4.87,0,0,0,3.518-1.338l.412-.412A2.281,2.281,0,0,0,19.03,14.7ZM18.112,17l-.412.412C16.012,19.1,12.285,18.8,8.43,14.94S4.265,7.354,5.953,5.665l.408-.411a.981.981,0,0,1,1.385,0L9.176,6.683a.981.981,0,0,1,.014,1.37,2.715,2.715,0,0,0-.345,3.4,11.046,11.046,0,0,0,3.061,3.056,2.714,2.714,0,0,0,3.4-.336.982.982,0,0,1,1.375.008l1.429,1.429A.981.981,0,0,1,18.112,17Z" transform="translate(-3.698 -3.675)" fill="#9ca3af"/>
</svg>
